<svg xmlns:dc="http://purl.org/dc/elements/1.1/" xmlns:cc="http://creativecommons.org/ns#" xmlns:rdf="http://www.w3.org/1999/02/22-rdf-syntax-ns#" xmlns:svg="http://www.w3.org/2000/svg" xmlns="http://www.w3.org/2000/svg" xmlns:sodipodi="http://sodipodi.sourceforge.net/DTD/sodipodi-0.dtd" xmlns:inkscape="http://www.inkscape.org/namespaces/inkscape" version="1.1" x="0px" y="0px" viewBox="0 0 100 125"><g transform="translate(0,-952.36218)"><path style="text-indent:0;text-transform:none;direction:ltr;block-progression:tb;baseline-shift:baseline;color:#202c7b;enable-background:accumulate;" d="m 26.687518,959.36226 c -1.46384,0.1534 -2.69537,1.5282 -2.6875,3 7.2e-4,7.6661 -3.5e-4,19.3329 0,27 1.6e-4,1.5708 1.42925,2.9998 3,3 l 2.000001,0 c 1.57075,-2e-4 2.99984,-1.4292 3,-3 -6e-5,-7.6668 -3.7e-4,-19.3335 0,-27 -1.6e-4,-1.5708 -1.42925,-2.9998 -3,-3 -0.758831,-4e-4 -1.577601,0 -2.312501,0 z m 22.000001,0 c -1.46384,0.1534 -2.69537,1.5282 -2.6875,3 7.2e-4,7.6657 -3.5e-4,35.33271 0,43.00004 1.6e-4,1.5708 1.42925,2.9998 3,3 l 2,0 c 1.57075,-2e-4 2.99984,-1.4292 3,-3 -6e-5,-7.66673 -3.7e-4,-35.33374 0,-43.00004 -1.6e-4,-1.5708 -1.42925,-2.9998 -3,-3 -0.75883,-4e-4 -1.5776,0 -2.3125,0 z m 22,0 c -1.46384,0.1534 -2.69537,1.5282 -2.6875,3 7.2e-4,7.6663 -3.5e-4,11.333 0,19 1.6e-4,1.5708 1.42925,2.9998 3,3 l 2,0 c 1.57075,-2e-4 2.99984,-1.4292 3,-3 -6e-5,-7.6668 -3.7e-4,-11.3334 0,-19 -1.6e-4,-1.5708 -1.42925,-2.9998 -3,-3 -0.75883,-4e-4 -1.5776,0 -2.3125,0 z m -5,27 c -1.46384,0.1534 -2.69537,1.5282 -2.6875,3 l 0,10.00001 c 1.6e-4,1.57083 1.42925,2.99983 3,3.00003 l 12,0 c 1.57075,-2e-4 2.99984,-1.4292 3,-3.00003 l 0,-10.00001 c -1.6e-4,-1.5708 -1.42925,-2.9998 -3,-3 -4.09036,0 -8.24712,0 -12.3125,0 z m 3.3125,6 6,0 0,4.00001 -6,0 z m -47.312501,2.00001 c -1.46384,0.1534 -2.69537,1.5282 -2.6875,3 l 0,10.00003 c 1.6e-4,1.5708 1.42925,2.9998 3,3 l 12.000001,0 c 1.57075,-2e-4 2.99984,-1.4292 3,-3 l 0,-10.00003 c -1.6e-4,-1.5708 -1.42925,-2.9998 -3,-3 -4.09036,0 -8.247121,0 -12.312501,0 z m 3.3125,6.00003 6.000001,0 0,4 -6.000001,0 z m 45.687501,4 c -1.46384,0.1534 -2.69537,1.5282 -2.6875,3 7.2e-4,7.6659 -3.5e-4,27.3328 0,35 1.6e-4,1.5708 1.42925,2.9998 3,3 l 2,0 c 1.57075,-2e-4 2.99984,-1.4292 3,-3 -6e-5,-7.6667 -3.7e-4,-27.3336 0,-35 -1.6e-4,-1.5708 -1.42925,-2.9998 -3,-3 -0.75883,-4e-4 -1.5776,0 -2.3125,0 z m -27,6 c -1.46384,0.1534 -2.69537,1.5282 -2.6875,3 l 0,10 c 1.6e-4,1.5708 1.42925,2.9998 3,3 l 12,0 c 1.57075,-2e-4 2.99984,-1.4292 3,-3 l 0,-10 c -1.6e-4,-1.5708 -1.42925,-2.9998 -3,-3 -4.09036,0 -8.24712,0 -12.3125,0 z m -17.000001,2 c -1.46384,0.1534 -2.69537,1.5282 -2.6875,3 7.2e-4,7.6661 -3.5e-4,19.3329 0,27 1.6e-4,1.5708 1.42925,2.9998 3,3 l 2.000001,0 c 1.57075,-2e-4 2.99984,-1.4292 3,-3 -6e-5,-7.6668 -3.7e-4,-19.3335 0,-27 -1.6e-4,-1.5708 -1.42925,-2.9998 -3,-3 -0.758831,-4e-4 -1.577601,0 -2.312501,0 z m 20.312501,4 6,0 0,4 -6,0 z m 1.6875,12 c -1.46384,0.1534 -2.69537,1.5282 -2.6875,3 7.2e-4,7.6665 -3.5e-4,3.3331 0,11 1.6e-4,1.5708 1.42925,2.9998 3,3 l 2,0 c 1.57075,-2e-4 2.99984,-1.4292 3,-3 -6e-5,-7.6668 -3.7e-4,-3.3333 0,-11 -1.6e-4,-1.5708 -1.42925,-2.9998 -3,-3 -0.75883,-4e-4 -1.5776,0 -2.3125,0 z" fill="#202c7b" fill-opacity="1" stroke="none" marker="none" visibility="visible" display="inline" overflow="visible"/></g></svg>