<?xml version="1.0" encoding="UTF-8"?>
<!DOCTYPE svg PUBLIC "-//W3C//DTD SVG 1.1//EN" "http://www.w3.org/Graphics/SVG/1.1/DTD/svg11.dtd">
<!-- Creator: CorelDRAW X7 -->
<svg xmlns="http://www.w3.org/2000/svg" xml:space="preserve" width="200px" height="200px" version="1.1" style="shape-rendering:geometricPrecision; text-rendering:geometricPrecision; image-rendering:optimizeQuality; fill-rule:evenodd; clip-rule:evenodd"
viewBox="0 0 200 200"
 xmlns:xlink="http://www.w3.org/1999/xlink">
 <defs>
  <style type="text/css">
   <![CDATA[
    .fil0 {fill:#202c7b}
   ]]>
  </style>
 </defs>
 <g id="Layer_x0020_1" visibility="hidden">
  <metadata id="CorelCorpID_0Corel-Layer"/>
  <path class="fil0" d="M807 714l-1267 0c-375,0 -680,-305 -680,-680 0,-375 305,-681 680,-681 98,0 195,22 283,62 80,-202 276,-339 497,-339 294,0 533,240 533,534 0,13 0,27 -1,40 273,23 488,252 488,531 0,294 -239,533 -533,533zm-1267 -1269c-324,0 -589,264 -589,589 0,324 265,589 589,589l1267 0c243,0 442,-199 442,-442 0,-244 -198,-441 -442,-441l-7 0c-13,0 -26,-6 -35,-17 -8,-10 -12,-24 -9,-37 4,-24 6,-51 6,-76 0,-244 -198,-442 -441,-442 -199,0 -374,133 -426,324 -4,13 -14,24 -27,30 -12,5 -27,4 -40,-3 -88,-48 -187,-74 -288,-74z"/>
 </g>
 <g id="Layer_x0020_2">
  <metadata id="CorelCorpID_1Corel-Layer"/>
  <path class="fil0" d="M196 107c-4,8 -11,5 -8,0 3,-5 5,-11 5,-18 0,-20 -16,-36 -36,-36l-1 0c-1,0 -2,0 -2,-1 -1,-1 -1,-2 -1,-3 0,-2 0,-4 0,-6 0,-20 -16,-36 -35,-36 -16,0 -30,11 -35,27 0,1 -1,1 -2,2 -1,0 -2,0 -3,0 -7,-4 -15,-6 -23,-6 -26,0 -48,21 -48,47 0,11 4,22 11,30 2,3 -4,8 -9,0 -6,-9 -9,-19 -9,-30 0,-30 25,-55 55,-55 8,0 16,2 23,5 6,-16 22,-27 40,-27 23,0 43,19 43,43 0,1 0,2 0,3 22,2 39,21 39,43 0,6 -1,12 -4,18z"/>
  <g id="_2735291916160">
   <path class="fil0" d="M152 124l-140 0c-1,0 -3,0 -3,-1 0,-1 -1,-2 -1,-2 0,-2 2,-4 4,-4l140 0 19 0c2,0 4,2 4,4 0,2 -2,3 -4,3l-19 0z"/>
   <path class="fil0" d="M173 137l-140 0c-1,0 -3,-1 -3,-2 -1,0 -1,-1 -1,-2 0,-2 2,-3 4,-3l140 0 19 0c2,0 4,1 4,3 0,2 -2,4 -4,4l-19 0z"/>
   <path class="fil0" d="M152 150l-140 0c-1,0 -3,-1 -3,-2 0,-1 -1,-1 -1,-2 0,-2 2,-4 4,-4l140 1 19 0c2,0 4,1 4,3 0,2 -2,4 -4,4l-19 0z"/>
  </g>
 </g>
</svg>
