<?xml version="1.0" encoding="UTF-8"?>
<!DOCTYPE svg PUBLIC "-//W3C//DTD SVG 1.1//EN" "http://www.w3.org/Graphics/SVG/1.1/DTD/svg11.dtd">
<!-- Creator: CorelDRAW X7 -->
<svg xmlns="http://www.w3.org/2000/svg" xml:space="preserve" width="200px" height="200px" version="1.1" style="shape-rendering:geometricPrecision; text-rendering:geometricPrecision; image-rendering:optimizeQuality; fill-rule:evenodd; clip-rule:evenodd"
viewBox="0 0 200 200"
 xmlns:xlink="http://www.w3.org/1999/xlink">
 <defs>
  <style type="text/css">
   <![CDATA[
    .fil0 {fill:#202c7b}
   ]]>
  </style>
 </defs>
 <g id="Layer_x0020_1">
  <metadata id="CorelCorpID_0Corel-Layer"/>
  <path class="fil0" d="M83 128c-2,0 -2,-2 -2,-4l0 -13 -13 6c0,2 -3,1 -4,-1 -1,-1 0,-3 2,-4l11 -6 -11 -7c-2,-1 -3,-3 -1,-4 1,-2 3,-3 4,-2l12 7 0 -13c0,-2 0,-4 2,-4 2,0 3,2 3,4l0 14 13 -8c1,-1 3,0 4,1 1,2 0,3 -2,4l-11 8 12 6c1,1 2,3 1,4 -1,2 -3,3 -4,2l-13 -7 0 13c0,2 -1,4 -3,4z"/>
  <path class="fil0" d="M157 132l-4 0c-2,0 -3,-2 -3,-4 0,-2 1,-3 3,-3l4 0c20,0 36,-16 36,-36 0,-20 -16,-36 -36,-36l-1 0c-1,0 -2,0 -2,-1 -1,-1 -1,-2 -1,-3 0,-2 0,-4 0,-6 0,-20 -16,-36 -35,-36 -16,0 -30,11 -35,26 0,2 -1,2 -2,3 -1,0 -2,0 -3,0 -7,-4 -15,-6 -23,-6 -26,0 -48,21 -48,47 0,28 18,48 43,48 2,0 4,1 4,3 0,2 -2,4 -4,4 -29,0 -50,-23 -50,-55 0,-30 25,-55 55,-55 8,0 16,2 23,5 6,-16 22,-27 40,-27 23,0 43,19 43,43 0,1 0,2 0,3 22,2 39,21 39,43 0,24 -19,43 -43,43l0 0z"/>
  <path class="fil0" d="M133 179c-2,0 -3,-2 -3,-3l0 -14 -12 6c-1,2 -3,1 -4,0 -1,-2 0,-4 1,-4l12 -7 -12 -7c-1,0 -2,-3 0,-4 0,-1 2,-2 4,-1l11 6 0 -13c0,-2 1,-3 3,-3 1,0 3,1 3,3l0 14 12 -7c1,-1 4,0 4,0 1,2 0,4 -1,5l-12 7 13 7c0,0 1,3 0,4 0,1 -2,2 -4,1l-12 -7 0 14c0,1 -2,3 -3,3z"/>
  <path class="fil0" d="M81 179c-1,0 -1,0 -2,0 -1,-1 -1,-2 0,-3l23 -40c0,-1 2,-2 3,-1 1,1 1,3 1,4l-23 39c-1,1 -2,1 -2,1l0 0z"/>
  <path class="fil0" d="M63 179c-1,0 -2,0 -2,0 -1,-1 -1,-2 -1,-3l23 -40c1,-1 3,-2 3,-1 2,1 2,3 2,3l-23 40c-1,1 -2,1 -2,1l0 0z"/>
 </g>
 <g id="Layer_x0020_2">
  <metadata id="CorelCorpID_1Corel-Layer"/>
  <path class="fil0" d="M134 128c-1,0 -1,0 -2,0 -1,-1 -1,-2 0,-3l23 -40c0,-1 2,-2 3,-1 1,1 1,2 1,3l-23 40c-1,1 -2,1 -2,1l0 0z"/>
  <path class="fil0" d="M116 128c-1,0 -2,0 -2,0 -1,-1 -1,-2 -1,-3l23 -40c1,-1 3,-2 3,-1 2,0 2,2 2,3l-23 40c-1,1 -2,1 -2,1l0 0z"/>
 </g>
</svg>
