<?xml version="1.0" encoding="UTF-8"?>
<!DOCTYPE svg PUBLIC "-//W3C//DTD SVG 1.1//EN" "http://www.w3.org/Graphics/SVG/1.1/DTD/svg11.dtd">
<!-- Creator: CorelDRAW X7 -->
<svg xmlns="http://www.w3.org/2000/svg" xml:space="preserve" width="200px" height="200px" version="1.1" style="shape-rendering:geometricPrecision; text-rendering:geometricPrecision; image-rendering:optimizeQuality; fill-rule:evenodd; clip-rule:evenodd"
viewBox="0 0 200 200"
 xmlns:xlink="http://www.w3.org/1999/xlink">
 <defs>
  <style type="text/css">
   <![CDATA[
    .fil0 {fill:#202c7b}
   ]]>
  </style>
 </defs>
 <g id="Layer_x0020_1">
  <metadata id="CorelCorpID_0Corel-Layer"/>
  <g id="_2735306097776">
   <path class="fil0" d="M150 145l-141 0c-1,0 -2,-1 -3,-2 0,0 0,-1 0,-2 0,-2 1,-3 3,-3l140 0 20 0c2,0 3,1 3,3 0,2 -1,4 -3,4l-19 0z"/>
   <path class="fil0" d="M171 158l-141 0c-1,0 -2,-1 -3,-2 0,-1 0,-1 0,-2 0,-2 1,-4 3,-4l140 0 20 0c2,0 3,2 3,4 0,2 -1,4 -3,4l-19 0z"/>
   <path class="fil0" d="M150 170l-141 0c-1,0 -2,0 -3,-1 0,-1 0,-2 0,-2 0,-2 1,-4 3,-4l140 0 20 0c2,0 3,2 3,4 0,2 -1,3 -3,3l-19 0z"/>
  </g>
 </g>
 <g id="Layer_x0020_2">
  <metadata id="CorelCorpID_1Corel-Layer"/>
  <path class="fil0" d="M50 124c3,6 -5,10 -9,0 -2,-6 -4,-13 -4,-20l-33 0c-2,0 -4,-2 -4,-4 0,-2 2,-4 4,-4l33 0c1,-15 6,-28 15,-38l-23 -22c-2,-1 -2,-4 -1,-6 2,-2 5,-2 7,0l24 22c10,-9 23,-14 37,-15l0 -33c0,-2 2,-4 5,-4 2,0 4,2 4,4l0 33c14,1 27,7 37,16 0,0 0,0 0,0l21 -23c2,-2 5,-2 7,-1 1,2 1,5 0,6l-22 24c0,0 0,0 0,0 8,10 14,23 15,37 0,0 0,0 0,0l33 0c2,0 4,2 4,5 0,2 -2,4 -4,4l-33 0c0,0 0,0 0,0 -1,7 -3,13 -5,20 -5,10 -14,7 -10,-1 4,-7 6,-15 6,-24 0,-30 -24,-54 -54,-54 -30,0 -55,24 -55,54 0,9 2,17 5,24z"/>
 </g>
</svg>
