<?xml version="1.0" encoding="UTF-8"?>
<!DOCTYPE svg PUBLIC "-//W3C//DTD SVG 1.1//EN" "http://www.w3.org/Graphics/SVG/1.1/DTD/svg11.dtd">
<!-- Creator: CorelDRAW X7 -->
<svg xmlns="http://www.w3.org/2000/svg" xml:space="preserve" width="200px" height="200px" version="1.1" style="shape-rendering:geometricPrecision; text-rendering:geometricPrecision; image-rendering:optimizeQuality; fill-rule:evenodd; clip-rule:evenodd"
viewBox="0 0 200 200"
 xmlns:xlink="http://www.w3.org/1999/xlink">
 <defs>
  <style type="text/css">
   <![CDATA[
    .fil0 {fill:#202c7b}
   ]]>
  </style>
 </defs>
 <g id="Layer_x0020_2">
  <metadata id="CorelCorpID_0Corel-Layer"/>
  <path class="fil0" d="M118 183c-2,0 -3,-2 -3,-4l0 -16c-8,0 -14,-3 -20,-7l-11 12c-2,2 -4,2 -5,0 -2,-1 -2,-3 -1,-5l12 -12c0,-1 0,-1 0,-1 -4,-5 -7,-11 -7,-19l-17 0c-2,0 -3,-1 -3,-3 0,-2 1,-4 3,-4l17 0c1,-7 3,-13 8,-18l-13 -12c-2,-2 -2,-4 0,-6 1,-1 3,-1 5,0l13 12c5,-4 12,-7 19,-7 0,0 0,-1 0,-1l0 -17c0,-2 1,-4 3,-4 3,0 4,2 4,4l0 17c0,1 0,1 0,1 6,0 12,3 17,6l10 -11c2,-1 4,-1 6,0 1,1 1,4 0,5l-10 11c4,6 8,13 8,21 0,0 0,0 0,0l4 0c20,0 36,-16 36,-36 0,-19 -16,-35 -36,-35l-1 0c-1,0 -2,-1 -2,-2 -1,-1 -1,-2 -1,-3 0,-2 0,-4 0,-6 0,-20 -16,-36 -35,-36 -16,0 -30,11 -35,27 0,1 -1,2 -2,2 -1,0 -2,0 -3,0 -7,-4 -15,-6 -23,-6 -26,0 -48,21 -48,47 0,16 7,31 17,39 2,1 2,4 1,5 -1,2 -4,2 -5,1 -13,-10 -20,-26 -20,-45 0,-30 25,-55 55,-55 8,0 16,2 23,5 6,-16 22,-27 40,-27 23,0 43,19 43,43 0,1 0,2 0,3 22,2 39,21 39,43 0,24 -19,43 -43,43l-4 0c0,0 0,0 0,0 -1,7 -3,13 -8,18 0,0 0,0 0,0l13 13c1,1 1,4 0,5 -2,2 -4,2 -6,0l-12 -12c0,-1 0,-1 0,-1 -6,4 -12,7 -18,8l0 16c0,2 -2,4 -4,4zm0 -83c-15,0 -28,12 -28,28 0,16 12,28 27,28 16,0 29,-13 29,-28 0,-16 -13,-28 -28,-28z"/>
 </g>
</svg>
