<?xml version="1.0" encoding="UTF-8"?>
<!DOCTYPE svg PUBLIC "-//W3C//DTD SVG 1.1//EN" "http://www.w3.org/Graphics/SVG/1.1/DTD/svg11.dtd">
<!-- Creator: CorelDRAW X7 -->
<svg xmlns="http://www.w3.org/2000/svg" xml:space="preserve" width="200px" height="200px" version="1.1" style="shape-rendering:geometricPrecision; text-rendering:geometricPrecision; image-rendering:optimizeQuality; fill-rule:evenodd; clip-rule:evenodd"
viewBox="0 0 200 200"
 xmlns:xlink="http://www.w3.org/1999/xlink">
 <defs>
  <style type="text/css">
   <![CDATA[
    .fil0 {fill:#202c7b}
   ]]>
  </style>
 </defs>
 <g id="Layer_x0020_1">
  <metadata id="CorelCorpID_0Corel-Layer"/>
  <path class="fil0" d="M157 185l-102 0c-30,0 -55,-25 -55,-55 0,-30 25,-55 55,-55 8,0 16,2 23,5 6,-16 22,-27 40,-27 23,0 43,19 43,43 0,1 0,2 0,3 22,2 39,21 39,43 0,24 -19,43 -43,43zm-102 -102c-26,0 -48,21 -48,47 0,26 22,48 48,48l102 0c20,0 36,-16 36,-36 0,-20 -16,-36 -36,-36l-1 0c-1,0 -2,0 -2,-1 -1,-1 -1,-2 -1,-3 0,-2 0,-4 0,-6 0,-20 -16,-36 -35,-36 -16,0 -30,11 -35,27 0,1 -1,1 -2,2 -1,0 -2,0 -3,0 -7,-4 -15,-6 -23,-6l0 0z"/>
  <path class="fil0" d="M94 49c1,-3 4,-7 6,-10l-15 -15c-2,0 -2,-2 -1,-4 1,-1 3,-1 5,0l16 15c7,-6 16,-9 25,-10l0 -22c0,-2 1,-3 3,-3 2,0 3,1 3,3l0 22c9,1 18,5 25,11 0,0 0,0 0,0l14 -16c1,-1 3,-1 5,0 0,1 0,3 0,4l-15 16c0,0 0,0 0,0 5,6 9,15 10,25 0,0 0,0 0,0l22 0c2,0 3,1 3,3 0,1 -1,3 -3,3l-22 0c0,0 0,0 0,0 -1,6 -3,12 -6,17 -2,5 -7,2 -5,-3 3,-5 5,-11 5,-18 0,-20 -16,-36 -36,-36 -15,0 -28,9 -34,21 -2,4 -7,1 -5,-3z"/>
 </g>
</svg>
