<?xml version="1.0" encoding="UTF-8"?>
<!DOCTYPE svg PUBLIC "-//W3C//DTD SVG 1.1//EN" "http://www.w3.org/Graphics/SVG/1.1/DTD/svg11.dtd">
<!-- Creator: CorelDRAW X7 -->
<svg xmlns="http://www.w3.org/2000/svg" xml:space="preserve" width="200px" height="200px" version="1.1" style="shape-rendering:geometricPrecision; text-rendering:geometricPrecision; image-rendering:optimizeQuality; fill-rule:evenodd; clip-rule:evenodd"
viewBox="0 0 200 200"
 xmlns:xlink="http://www.w3.org/1999/xlink">
 <defs>
  <style type="text/css">
   <![CDATA[
    .fil0 {fill:#202c7b}
   ]]>
  </style>
 </defs>
 <g id="Layer_x0020_2">
  <metadata id="CorelCorpID_0Corel-Layer"/>
  <path class="fil0" d="M125 183c-2,0 -4,-2 -4,-4l0 -17 -14 8c-2,1 -4,1 -5,-1 -1,-2 0,-4 1,-5l15 -8 -14 -8c-2,-1 -3,-4 -2,-5 1,-2 4,-3 5,-2l14 8 0 -16c0,-2 2,-4 4,-4 2,0 4,2 4,4l0 16 14 -8c2,-1 4,0 5,1 1,2 1,4 -1,5l-14 9 14 8c2,1 3,4 2,5 -1,2 -4,3 -5,2l-15 -9 0 17c0,2 -2,4 -4,4zm32 -51l-4 0c-2,0 -3,-2 -3,-4 0,-2 1,-3 3,-3l4 0c20,0 36,-16 36,-36 0,-20 -16,-36 -36,-36l-1 0c-1,0 -2,0 -2,-1 -1,-1 -1,-2 -1,-3 0,-2 0,-4 0,-6 0,-20 -16,-36 -35,-36 -16,0 -30,11 -35,26 0,2 -1,2 -2,3 -1,0 -2,0 -3,0 -7,-4 -15,-6 -23,-6 -26,0 -48,21 -48,47 0,28 18,48 43,48 2,0 4,1 4,3 0,2 -2,4 -4,4 -29,0 -50,-23 -50,-55 0,-30 25,-55 55,-55 8,0 16,2 23,5 6,-16 22,-27 40,-27 23,0 43,19 43,43 0,1 0,2 0,3 22,2 39,21 39,43 0,24 -19,43 -43,43zm-74 -1c-2,0 -3,-2 -3,-4l0 -17 -15 8c-1,2 -4,1 -5,-1 -1,-2 0,-4 2,-5l14 -8 -14 -8c-2,-1 -3,-4 -1,-5 1,-2 3,-3 5,-2l14 8 0 -16c0,-2 1,-4 3,-4 2,0 4,2 4,4l0 17 15 -9c1,-1 4,0 5,1 1,2 0,4 -2,5l-14 9 15 8c1,1 2,4 1,5 -1,2 -3,3 -5,2l-15 -9 0 17c0,2 -2,4 -4,4z"/>
 </g>
</svg>
