<?xml version="1.0" encoding="UTF-8"?>
<!DOCTYPE svg PUBLIC "-//W3C//DTD SVG 1.1//EN" "http://www.w3.org/Graphics/SVG/1.1/DTD/svg11.dtd">
<!-- Creator: CorelDRAW X7 -->
<svg xmlns="http://www.w3.org/2000/svg" xml:space="preserve" width="200px" height="200px" version="1.1" style="shape-rendering:geometricPrecision; text-rendering:geometricPrecision; image-rendering:optimizeQuality; fill-rule:evenodd; clip-rule:evenodd"
viewBox="0 0 200 200"
 xmlns:xlink="http://www.w3.org/1999/xlink">
 <defs>
  <style type="text/css">
   <![CDATA[
    .fil0 {fill:#202c7b}
   ]]>
  </style>
 </defs>
 <g id="Layer_x0020_2">
  <metadata id="CorelCorpID_0Corel-Layer"/>
  <path class="fil0" d="M100 200c-2,0 -4,-2 -4,-4l0 -33c-15,0 -28,-6 -38,-14 0,0 0,0 0,0l-21 23c-2,2 -5,2 -7,0 -1,-1 -1,-4 0,-6l22 -23c0,0 0,0 0,0 -9,-10 -14,-24 -15,-39l-33 0c-2,0 -4,-2 -4,-4 0,-2 2,-4 4,-4l33 0c1,-15 6,-28 15,-38l-23 -22c-2,-1 -2,-4 -1,-6 2,-2 5,-2 7,0l24 22c10,-9 23,-14 37,-15l0 -33c0,-2 2,-4 5,-4 2,0 4,2 4,4l0 33c14,1 27,7 37,16 0,0 0,0 0,0l21 -23c2,-2 5,-2 7,-1 1,2 1,5 0,6l-22 24c0,0 0,0 0,0 8,10 14,23 15,37 0,0 0,0 0,0l33 0c2,0 4,2 4,5 0,2 -2,4 -4,4l-33 0c0,0 0,0 0,0 -2,14 -7,27 -17,37 0,0 0,0 0,0l23 24c2,1 2,4 0,6 -2,2 -5,2 -6,0l-23 -23c-1,0 -1,-1 -1,-1 -10,9 -22,14 -35,15l0 33c0,2 -2,4 -4,4zm0 -154c-30,0 -55,24 -55,54 0,31 23,55 53,55 30,0 56,-25 56,-55 0,-30 -24,-54 -54,-54z"/>
 </g>
</svg>
